<svg width="1080" height="1238" viewBox="0 0 1080 1238" fill="none" xmlns="http://www.w3.org/2000/svg">
<path d="M433.952 216.865L391.153 281.485C391.153 281.485 295.342 243.395 267.028 286.145L211.054 370.657L295.187 426.38L250.439 493.943L166.306 438.22L110.114 523.062C110.114 523.062 71.218 584.645 154.037 639.497L109.944 706.071C109.944 706.071 -16.7962 577.966 44.5878 485.285L208.206 238.245C208.206 238.245 286.881 119.457 433.952 216.865Z" fill="#ECF3F8" fill-opacity="0.46"/>
<path d="M700.974 221.867L659.267 284.84C659.267 284.84 565.442 223.612 527.46 280.958L211.326 758.275C211.326 758.275 167.994 819.393 263.381 882.569L219.148 949.355C219.148 949.355 70.8927 835.516 149.131 717.388L466.404 238.352C466.404 238.352 545.516 118.905 700.974 221.867Z" fill="#ECF3F8" fill-opacity="0.46"/>
<path d="M734.991 244.388L253.483 972.121L319.409 1015.78L756.3 356.142C756.3 356.142 819.511 404.578 786.223 454.838L385.645 1059.65L449.252 1101.78L850.47 496.001C850.47 496.001 926.769 371.406 796.926 285.409L734.991 244.388Z" fill="#ECF3F8" fill-opacity="0.46"/>
<path d="M567.744 1009.24L878.194 541.127L940.846 582.622L679.905 976.604C679.905 976.604 724.19 1000.41 752.193 958.135L982.59 610.269L1042.88 650.198L800.536 1016.1C800.536 1016.1 729.096 1116.07 619.874 1043.73L567.76 1009.21L567.744 1009.24Z" fill="#ECF3F8" fill-opacity="0.46"/>
</svg>
